<svg xmlns="http://www.w3.org/2000/svg" xmlns:xlink="http://www.w3.org/1999/xlink" width="500" zoomAndPan="magnify" viewBox="0 0 375 374.999991" height="500" preserveAspectRatio="xMidYMid meet" version="1.0"><defs><clipPath id="9524b6048e"><path d="M 124 78 L 304.855469 78 L 304.855469 267 L 124 267 Z M 124 78 " clip-rule="nonzero"/></clipPath><clipPath id="a8082fb892"><path d="M 70.105469 156 L 295 156 L 295 295 L 70.105469 295 Z M 70.105469 156 " clip-rule="nonzero"/></clipPath><clipPath id="1fbf92c406"><path d="M 89 303 L 284 303 L 284 331.804688 L 89 331.804688 Z M 89 303 " clip-rule="nonzero"/></clipPath><clipPath id="78ea6d5cd8"><path d="M 172 43.054688 L 202 43.054688 L 202 74 L 172 74 Z M 172 43.054688 " clip-rule="nonzero"/></clipPath></defs><g clip-path="url(#9524b6048e)"><path fill="#ffffff" d="M 246.15625 187.792969 C 246.15625 188.699219 246.046875 189.839844 244.949219 189.820312 C 236.714844 185.957031 227.570312 182.09375 229.003906 170.914062 C 229.367188 168.074219 231.652344 165.394531 231.929688 163.3125 C 232.300781 160.558594 232.136719 154.089844 231.929688 151.148438 C 231.234375 141.316406 226.382812 130.117188 219.144531 123.640625 C 219.253906 132.027344 222.160156 140.078125 223.402344 148.296875 C 228.636719 182.902344 206.949219 222.667969 191.699219 252.261719 L 186.726562 266.078125 C 181.382812 246.921875 170.046875 230.289062 162.566406 211.867188 C 156.457031 196.804688 149.132812 172.988281 149.496094 156.722656 C 149.734375 146.03125 155.015625 134.53125 154.789062 123.632812 C 150.777344 126.992188 147.777344 131.945312 145.695312 136.753906 C 139.125 151.953125 141.867188 169.199219 145.957031 184.75 C 132.195312 187.15625 127.386719 169.902344 125.480469 159.082031 C 118.816406 121.226562 135.660156 83.804688 175.679688 79.1875 C 181.269531 78.539062 190.019531 78.886719 195.832031 79.160156 C 236.398438 81.050781 254.949219 123 246.503906 160.105469 C 246.027344 162.195312 242.417969 172.296875 242.933594 173.136719 L 301.921875 203.429688 C 308.285156 207.527344 303.429688 215.996094 296.730469 213.8125 L 246.164062 187.785156 Z M 246.15625 187.792969 " fill-opacity="1" fill-rule="nonzero"/></g><g clip-path="url(#a8082fb892)"><path fill="#ffffff" d="M 178.273438 249.007812 C 182.066406 255.410156 183.683594 262.570312 186.261719 269.332031 C 186.460938 269.859375 186.4375 270.554688 187.203125 270.628906 C 188.800781 263.070312 192.039062 256.023438 195.765625 249.371094 C 223.585938 244.117188 246.558594 222.046875 254.507812 194.347656 L 294.738281 214.605469 C 286.914062 237.519531 271.097656 258.664062 251.90625 272.757812 C 215.265625 299.664062 171.675781 301.820312 132.359375 279.300781 C 90.164062 255.128906 65.582031 206.128906 70.800781 156.46875 L 116.011719 160.75 L 116.421875 161.316406 C 110.425781 201.175781 139.890625 242.222656 178.273438 249.015625 Z M 178.273438 249.007812 " fill-opacity="1" fill-rule="nonzero"/></g><g clip-path="url(#1fbf92c406)"><path fill="#ffffff" d="M 91.097656 304.640625 C 91.882812 303.894531 93.511719 303.453125 94.597656 303.4375 L 278.335938 303.4375 C 284.300781 303.457031 283.664062 309.679688 282.667969 314.007812 C 280.445312 323.695312 271.992188 330.558594 262.535156 331.691406 L 110.804688 331.769531 C 100.796875 330.835938 91.609375 323.15625 90.027344 312.738281 C 89.679688 310.445312 89.316406 306.324219 91.089844 304.640625 Z M 91.097656 304.640625 " fill-opacity="1" fill-rule="nonzero"/></g><g clip-path="url(#78ea6d5cd8)"><path fill="#ffffff" d="M 184.636719 43.453125 C 206.976562 40.09375 207.300781 74.96875 186.707031 73.894531 C 168.675781 72.949219 167.957031 45.960938 184.636719 43.453125 Z M 184.636719 43.453125 " fill-opacity="1" fill-rule="nonzero"/></g></svg>