<svg xmlns="http://www.w3.org/2000/svg" xmlns:xlink="http://www.w3.org/1999/xlink" width="500" zoomAndPan="magnify" viewBox="0 0 375 374.999991" height="500" preserveAspectRatio="xMidYMid meet" version="1.0"><defs><clipPath id="fa8b62a6d4"><path d="M 125 81 L 302.34375 81 L 302.34375 265 L 125 265 Z M 125 81 " clip-rule="nonzero"/></clipPath><clipPath id="1e150d3d72"><path d="M 72.84375 157 L 293 157 L 293 293 L 72.84375 293 Z M 72.84375 157 " clip-rule="nonzero"/></clipPath><clipPath id="79f686c788"><path d="M 92 300 L 282 300 L 282 328.425781 L 92 328.425781 Z M 92 300 " clip-rule="nonzero"/></clipPath><clipPath id="0d45179a42"><path d="M 172 46.425781 L 202 46.425781 L 202 77 L 172 77 Z M 172 46.425781 " clip-rule="nonzero"/></clipPath></defs><g clip-path="url(#fa8b62a6d4)"><path fill="#7c53dc" d="M 244.792969 187.78125 C 244.792969 188.667969 244.683594 189.78125 243.613281 189.761719 C 235.570312 185.988281 226.640625 182.21875 228.039062 171.296875 C 228.394531 168.523438 230.625 165.90625 230.898438 163.871094 C 231.257812 161.179688 231.097656 154.863281 230.898438 151.992188 C 230.21875 142.390625 225.480469 131.449219 218.410156 125.125 C 218.519531 133.316406 221.355469 141.175781 222.570312 149.207031 C 227.679688 183.003906 206.496094 221.84375 191.605469 250.75 L 186.746094 264.242188 C 181.53125 245.53125 170.457031 229.285156 163.152344 211.296875 C 157.183594 196.582031 150.03125 173.320312 150.386719 157.4375 C 150.617188 146.996094 155.777344 135.761719 155.554688 125.117188 C 151.636719 128.398438 148.707031 133.234375 146.671875 137.933594 C 140.257812 152.777344 142.933594 169.625 146.925781 184.808594 C 133.488281 187.160156 128.789062 170.308594 126.929688 159.742188 C 120.421875 122.765625 136.871094 86.21875 175.960938 81.707031 C 181.417969 81.074219 189.964844 81.414062 195.640625 81.679688 C 235.261719 83.527344 253.378906 124.5 245.132812 160.742188 C 244.664062 162.78125 241.140625 172.648438 241.644531 173.46875 L 299.257812 203.054688 C 305.472656 207.058594 300.730469 215.328125 294.1875 213.195312 L 244.796875 187.773438 Z M 244.792969 187.78125 " fill-opacity="1" fill-rule="nonzero"/></g><g clip-path="url(#1e150d3d72)"><path fill="#7c53dc" d="M 178.492188 247.570312 C 182.195312 253.820312 183.773438 260.816406 186.292969 267.421875 C 186.488281 267.933594 186.46875 268.613281 187.214844 268.6875 C 188.773438 261.304688 191.9375 254.421875 195.574219 247.925781 C 222.75 242.792969 245.183594 221.238281 252.949219 194.183594 L 292.242188 213.96875 C 284.597656 236.351562 269.152344 257 250.410156 270.765625 C 214.621094 297.046875 172.046875 299.152344 133.648438 277.15625 C 92.433594 253.546875 68.425781 205.691406 73.523438 157.1875 L 117.679688 161.367188 L 118.082031 161.921875 C 112.222656 200.855469 141.003906 240.941406 178.492188 247.578125 Z M 178.492188 247.570312 " fill-opacity="1" fill-rule="nonzero"/></g><g clip-path="url(#79f686c788)"><path fill="#7c53dc" d="M 93.347656 301.902344 C 94.113281 301.175781 95.707031 300.746094 96.765625 300.730469 L 276.222656 300.730469 C 282.046875 300.75 281.425781 306.828125 280.453125 311.054688 C 278.28125 320.515625 270.027344 327.21875 260.789062 328.324219 L 112.597656 328.402344 C 102.820312 327.492188 93.847656 319.988281 92.300781 309.8125 C 91.960938 307.574219 91.609375 303.550781 93.339844 301.902344 Z M 93.347656 301.902344 " fill-opacity="1" fill-rule="nonzero"/></g><g clip-path="url(#0d45179a42)"><path fill="#7c53dc" d="M 184.707031 46.804688 C 206.523438 43.527344 206.84375 77.589844 186.726562 76.535156 C 169.117188 75.617188 168.417969 49.257812 184.707031 46.804688 Z M 184.707031 46.804688 " fill-opacity="1" fill-rule="nonzero"/></g></svg>